<mxfile host="Electron" agent="Mozilla/5.0 (Windows NT 10.0; Win64; x64) AppleWebKit/537.36 (KHTML, like Gecko) draw.io/28.0.4 Chrome/138.0.7204.97 Electron/37.2.1 Safari/537.36" version="28.0.4">
  <diagram name="PÃ¡gina-1" id="tSuszckhUv06nTEH6AYZ">
    <mxGraphModel dx="871" dy="516" grid="1" gridSize="2" guides="1" tooltips="1" connect="1" arrows="1" fold="1" page="1" pageScale="1" pageWidth="827" pageHeight="1169" math="0" shadow="0">
      <root>
        <mxCell id="0" />
        <mxCell id="1" parent="0" />
        <mxCell id="NrBCvQKws-AdAt4bWsWs-1" value="Sensor Emulator" style="rounded=0;whiteSpace=wrap;html=1;" vertex="1" parent="1">
          <mxGeometry x="526" y="222" width="120" height="60" as="geometry" />
        </mxCell>
        <mxCell id="NrBCvQKws-AdAt4bWsWs-2" value="Sensor Reader" style="rounded=0;whiteSpace=wrap;html=1;" vertex="1" parent="1">
          <mxGeometry x="340" y="220" width="120" height="60" as="geometry" />
        </mxCell>
        <mxCell id="NrBCvQKws-AdAt4bWsWs-3" value="WebApi" style="rounded=0;whiteSpace=wrap;html=1;" vertex="1" parent="1">
          <mxGeometry x="334" y="72" width="120" height="60" as="geometry" />
        </mxCell>
        <mxCell id="NrBCvQKws-AdAt4bWsWs-4" value="DashBoard" style="rounded=0;whiteSpace=wrap;html=1;" vertex="1" parent="1">
          <mxGeometry x="146" y="166" width="120" height="60" as="geometry" />
        </mxCell>
        <mxCell id="NrBCvQKws-AdAt4bWsWs-5" value="" style="endArrow=classic;startArrow=classic;html=1;rounded=0;exitX=0.5;exitY=0;exitDx=0;exitDy=0;entryX=0;entryY=0.5;entryDx=0;entryDy=0;" edge="1" parent="1" source="NrBCvQKws-AdAt4bWsWs-4" target="NrBCvQKws-AdAt4bWsWs-3">
          <mxGeometry width="50" height="50" relative="1" as="geometry">
            <mxPoint x="400" y="270" as="sourcePoint" />
            <mxPoint x="450" y="220" as="targetPoint" />
            <Array as="points">
              <mxPoint x="206" y="102" />
            </Array>
          </mxGeometry>
        </mxCell>
        <mxCell id="NrBCvQKws-AdAt4bWsWs-6" value="" style="endArrow=classic;startArrow=classic;html=1;rounded=0;exitX=1;exitY=0.5;exitDx=0;exitDy=0;entryX=-0.008;entryY=0.455;entryDx=0;entryDy=0;entryPerimeter=0;" edge="1" parent="1" source="NrBCvQKws-AdAt4bWsWs-2" target="NrBCvQKws-AdAt4bWsWs-1">
          <mxGeometry width="50" height="50" relative="1" as="geometry">
            <mxPoint x="400" y="340" as="sourcePoint" />
            <mxPoint x="508" y="240" as="targetPoint" />
          </mxGeometry>
        </mxCell>
        <mxCell id="NrBCvQKws-AdAt4bWsWs-7" value="" style="endArrow=classic;startArrow=classic;html=1;rounded=0;entryX=0.559;entryY=1.03;entryDx=0;entryDy=0;entryPerimeter=0;exitX=0.5;exitY=0;exitDx=0;exitDy=0;" edge="1" parent="1" source="NrBCvQKws-AdAt4bWsWs-2" target="NrBCvQKws-AdAt4bWsWs-3">
          <mxGeometry width="50" height="50" relative="1" as="geometry">
            <mxPoint x="440" y="190" as="sourcePoint" />
            <mxPoint x="450" y="220" as="targetPoint" />
          </mxGeometry>
        </mxCell>
        <mxCell id="NrBCvQKws-AdAt4bWsWs-10" value="Domain&lt;br&gt;V1" style="shape=umlFrame;whiteSpace=wrap;html=1;pointerEvents=0;width=106;height=54;" vertex="1" parent="1">
          <mxGeometry x="72" y="18" width="646" height="370" as="geometry" />
        </mxCell>
      </root>
    </mxGraphModel>
  </diagram>
</mxfile>
